<svg xmlns="http://www.w3.org/2000/svg" width="23.183" height="23.182" viewBox="0 0 23.183 23.182">
    <path data-name="Path 81832" d="M11.593 23.183A11.591 11.591 0 1 0 0 11.591a11.6 11.6 0 0 0 11.593 11.592zm0-21.6a10 10 0 1 1-10 10 10.016 10.016 0 0 1 10-9.996z" style="fill:#fff" transform="rotate(-90 11.592 11.592)"/>
    <path data-name="Path 81833" d="M55.672 70.612a.793.793 0 1 0 1.122-1.122l-3.049-3.049h8.828a.793.793 0 0 0 0-1.587h-8.828l3.049-3.049a.793.793 0 0 0-1.122-1.122l-4.4 4.4a.793.793 0 0 0 0 1.122z" transform="rotate(-90 7.382 61.438)" style="fill:#fff"/>
</svg>
