<svg xmlns="http://www.w3.org/2000/svg" viewBox="0 0 498.05 236.9"><defs><style>.cls-1,.cls-2{fill:#fff;}.cls-1{opacity:0;}</style></defs><g id="Layer_2" data-name="Layer 2"><g id="Layer_1-2" data-name="Layer 1"><rect class="cls-1" x="130.58" y="-130.58" width="236.9" height="498.05" transform="translate(130.58 367.48) rotate(-90)"/><path class="cls-2" d="M190.63,137.63v45.5H163.8V139.8c0-13.05-6.53-17-13.42-17-8.16,0-14.32,4.35-14.5,17.77v42.6H109V139.8c0-13.05-6.52-17-13.23-17-7.26,0-14.69,2.9-14.69,17v43.33H54.29V98.64H81.12v15.6C83.3,101.91,95.44,96.47,104,96.47c12.51,0,21.93,5.8,26.83,16,5.8-11.42,18.86-16,27.74-16C179.75,96.47,190.63,111.7,190.63,137.63Z"/><path class="cls-2" d="M203.51,140.71c0-26.84,21.76-44.24,45.88-44.24s46.05,17.4,46.05,44.24c0,26.65-21.94,44.06-46.05,44.06S203.51,167.36,203.51,140.71Zm64.55,0c0-11.61-8.34-19.4-18.67-19.4s-18.68,7.79-18.68,19.4,8.34,19.22,18.68,19.22S268.06,152.31,268.06,140.71Z"/><path class="cls-2" d="M403.33,140.71c0,27.38-19.95,44.06-41.16,44.06-8.71,0-19.94-3.27-26.11-11.06v9.42H309.23V54h26.83v53.67c6.17-7.8,17.4-11.06,26.11-11.06C383.38,96.65,403.33,113.33,403.33,140.71Zm-27.2,0c0-10.7-9.07-19-19.58-19-10.16,0-19.58,8.16-19.58,19s9.24,19,19.58,19C367.06,159.75,376.13,151.4,376.13,140.71Z"/><path class="cls-2" d="M414,70.18c0-8.89,7.62-15.6,16.68-15.6S447,61.29,447,70.18c0,8.52-7.25,15.59-16.32,15.59S414,78.7,414,70.18Zm3.27,28.46h26.83v84.49H417.3Z"/></g></g></svg>