<svg xmlns="http://www.w3.org/2000/svg" width="83.466" height="39.701" viewBox="0 0 83.466 39.701"><defs><style>.a,.b{fill:#1f60ab;}.a{opacity:0;}</style></defs><g transform="translate(-125.091 -770.466)"><rect class="a" width="39.701" height="83.466" transform="translate(125.091 810.167) rotate(-90)"/><g transform="translate(134.189 779.522)"><path class="b" d="M175.17,825.75v7.626h-4.5v-7.262c0-2.188-1.094-2.856-2.249-2.856-1.368,0-2.4.729-2.431,2.978v7.14h-4.5v-7.262c0-2.188-1.094-2.856-2.218-2.856-1.215,0-2.461.486-2.461,2.856v7.262h-4.5V819.218h4.5v2.613a3.85,3.85,0,0,1,3.829-2.978,4.707,4.707,0,0,1,4.5,2.673,5.339,5.339,0,0,1,4.649-2.673C173.347,818.853,175.17,821.405,175.17,825.75Z" transform="translate(-152.321 -811.743)"/><path class="b" d="M227.172,826.267a7.709,7.709,0,1,1,7.687,7.383A7.424,7.424,0,0,1,227.172,826.267Zm10.817,0a3.131,3.131,0,1,0-3.13,3.221A3.1,3.1,0,0,0,237.989,826.267Z" transform="translate(-202.164 -811.743)"/><path class="b" d="M295.965,812.1a6.994,6.994,0,0,1-6.9,7.383,5.754,5.754,0,0,1-4.375-1.853v1.58h-4.5V797.572h4.5v8.994a5.752,5.752,0,0,1,4.375-1.854A6.994,6.994,0,0,1,295.965,812.1Zm-4.558,0a3.283,3.283,0,1,0-3.282,3.19A3.249,3.249,0,0,0,291.407,812.1Z" transform="translate(-237.471 -797.572)"/><path class="b" d="M332.764,800.458a2.7,2.7,0,0,1,2.8-2.613,2.641,2.641,0,0,1,2.734,2.613,2.68,2.68,0,0,1-2.734,2.613A2.735,2.735,0,0,1,332.764,800.458Zm.547,4.77h4.5v14.159h-4.5Z" transform="translate(-272.477 -797.754)"/></g></g></svg>