<svg xmlns="http://www.w3.org/2000/svg" width="40.438" height="40.438" viewBox="0 0 40.438 40.438">
    <path data-name="Path 16063" d="M42.077 49.438H17.361A7.369 7.369 0 0 1 10 42.077V17.361A7.369 7.369 0 0 1 17.361 10h24.716a7.369 7.369 0 0 1 7.361 7.361v24.716a7.369 7.369 0 0 1-7.361 7.361zM17.361 10.607a6.761 6.761 0 0 0-6.754 6.754v24.716a6.761 6.761 0 0 0 6.754 6.754h24.716a6.762 6.762 0 0 0 6.754-6.754V17.361a6.762 6.762 0 0 0-6.754-6.754z" transform="translate(-9.5 -9.5)" style="stroke:#707070"/>
    <path data-name="Path 16064" d="M37.97 60.318a.3.3 0 0 1-.215-.518L59.8 37.756a.3.3 0 1 1 .429.429L38.184 60.229a.3.3 0 0 1-.214.089z" transform="translate(-28.773 -28.774)" style="stroke:#707070"/>
    <path data-name="Path 16065" d="M60.014 60.318a.3.3 0 0 1-.214-.089L37.755 38.185a.3.3 0 0 1 .429-.429L60.229 59.8a.3.3 0 0 1-.214.518z" transform="translate(-28.773 -28.774)" style="stroke:#707070"/>
</svg>
