<svg xmlns="http://www.w3.org/2000/svg" width="217.623" height="103.514" viewBox="0 0 217.623 103.514"><defs><style>.a,.b{fill:#fff;}.a{opacity:0;}</style></defs><g transform="translate(0 0)"><g transform="translate(0 0)"><rect class="a" width="103.514" height="217.623" transform="translate(0 103.514) rotate(-90)"/><path class="b" d="M113.864,114.455v19.881H102.14V115.4c0-5.7-2.853-7.428-5.864-7.428-3.566,0-6.257,1.9-6.336,7.765v18.614H78.2V115.4c0-5.7-2.849-7.428-5.781-7.428-3.172,0-6.419,1.267-6.419,7.428v18.933H54.29V97.418H66.013v6.816c.953-5.388,6.257-7.765,10-7.765,5.466,0,9.582,2.534,11.723,6.991,2.534-4.99,8.241-6.991,12.121-6.991C109.11,96.47,113.864,103.125,113.864,114.455Z" transform="translate(-30.568 -54.317)"/><path class="b" d="M203.51,115.8c0-11.728,9.508-19.331,20.047-19.331s20.122,7.6,20.122,19.331c0,11.645-9.587,19.252-20.122,19.252S203.51,127.445,203.51,115.8Zm28.205,0a8.163,8.163,0,1,0-8.158,8.4A8.079,8.079,0,0,0,231.715,115.8Z" transform="translate(-114.586 -54.317)"/><path class="b" d="M350.347,91.888c0,11.964-8.717,19.252-17.985,19.252-3.806,0-8.713-1.429-11.409-4.833v4.116H309.23V54h11.723V77.451c2.7-3.408,7.6-4.833,11.409-4.833C341.63,72.636,350.347,79.924,350.347,91.888Zm-11.885,0a8.559,8.559,0,1,0-8.556,8.3A8.458,8.458,0,0,0,338.462,91.888Z" transform="translate(-174.112 -30.405)"/><path class="b" d="M414,61.4a7.028,7.028,0,0,1,7.288-6.816,6.89,6.89,0,0,1,7.131,6.816,6.987,6.987,0,0,1-7.131,6.812A7.128,7.128,0,0,1,414,61.4Zm1.429,12.436h11.723V110.75h-11.71Z" transform="translate(-233.102 -30.731)"/></g></g></svg>