<svg width="27" height="27" viewBox="0 0 27 27" fill="none" xmlns="http://www.w3.org/2000/svg">
<path d="M13.79 7.91168C16.55 7.91168 18.79 10.1517 18.79 12.9117C18.79 13.5617 18.66 14.1717 18.43 14.7417L21.35 17.6617C22.86 16.4017 24.05 14.7717 24.78 12.9117C23.05 8.52168 18.78 5.41168 13.78 5.41168C12.38 5.41168 11.04 5.66168 9.80004 6.11168L11.96 8.27168C12.53 8.04168 13.14 7.91168 13.79 7.91168ZM3.79004 5.18168L6.07004 7.46168L6.53004 7.92168C4.87004 9.21168 3.57004 10.9317 2.79004 12.9117C4.52004 17.3017 8.79004 20.4117 13.79 20.4117C15.34 20.4117 16.82 20.1117 18.17 19.5717L18.59 19.9917L21.52 22.9117L22.79 21.6417L5.06004 3.91168L3.79004 5.18168ZM9.32004 10.7117L10.87 12.2617C10.82 12.4717 10.79 12.6917 10.79 12.9117C10.79 14.5717 12.13 15.9117 13.79 15.9117C14.01 15.9117 14.23 15.8817 14.44 15.8317L15.99 17.3817C15.32 17.7117 14.58 17.9117 13.79 17.9117C11.03 17.9117 8.79004 15.6717 8.79004 12.9117C8.79004 12.1217 8.99004 11.3817 9.32004 10.7117ZM13.63 9.93168L16.78 13.0817L16.8 12.9217C16.8 11.2617 15.46 9.92168 13.8 9.92168L13.63 9.93168Z" fill="#005BAA"/>
</svg>
