<svg width="27" height="27" viewBox="0 0 27 27" fill="none" xmlns="http://www.w3.org/2000/svg">
<path d="M13.3096 6.37366C8.30957 6.37366 4.03957 9.48366 2.30957 13.8737C4.03957 18.2637 8.30957 21.3737 13.3096 21.3737C18.3096 21.3737 22.5796 18.2637 24.3096 13.8737C22.5796 9.48366 18.3096 6.37366 13.3096 6.37366ZM13.3096 18.8737C10.5496 18.8737 8.30957 16.6337 8.30957 13.8737C8.30957 11.1137 10.5496 8.87366 13.3096 8.87366C16.0696 8.87366 18.3096 11.1137 18.3096 13.8737C18.3096 16.6337 16.0696 18.8737 13.3096 18.8737ZM13.3096 10.8737C11.6496 10.8737 10.3096 12.2137 10.3096 13.8737C10.3096 15.5337 11.6496 16.8737 13.3096 16.8737C14.9696 16.8737 16.3096 15.5337 16.3096 13.8737C16.3096 12.2137 14.9696 10.8737 13.3096 10.8737Z" fill="#005BAA"/>
</svg>
